<svg width="424" height="228" viewBox="0 0 424 228" fill="none" xmlns="http://www.w3.org/2000/svg">
<path d="M222.039 94.0036C221.725 94.0157 221.416 94.0703 221.102 94.1492L199.639 99.2951C197.098 99.908 195.513 102.426 196.136 104.926L199.145 117.014C199.522 118.531 200.638 119.678 202.007 120.218V117.306C202.007 113.022 205.547 109.538 209.902 109.538H229.786L226.825 97.5474C226.283 95.3628 224.241 93.9186 222.039 94.0036ZM223.964 100.703L225.247 105.994L219.918 107.257L218.586 102.014L223.964 100.703ZM205.165 117.306V129.734C205.165 132.306 205.165 114.733 205.165 117.306Z" fill="#8F8F8F"/>
<path d="M205.2 122.667H242V133.1C242 135.254 240.254 137 238.1 137H209.1C206.946 137 205.2 135.254 205.2 133.1V122.667ZM209.1 112.242H238.1C240.254 112.242 242 113.989 242 116.142V118.758H205.2V116.142C205.2 113.989 206.946 112.242 209.1 112.242ZM210.446 130.485C209.726 130.485 209.143 131.068 209.143 131.788C209.143 132.508 209.726 133.091 210.446 133.091H214.411C215.131 133.091 215.714 132.508 215.714 131.788C215.714 131.068 215.131 130.485 214.411 130.485H210.446Z" fill="#8F8F8F"/>
<path d="M69.5579 83.2637H62.5197C62.038 83.2637 61.6284 83.6212 61.5533 84.107L58.7067 102.547C58.6501 102.911 58.9259 103.239 59.2872 103.239H62.6473C63.1289 103.239 63.5385 102.882 63.6136 102.395L64.3814 97.4212C64.4555 96.9344 64.8661 96.5769 65.3467 96.5769H67.5748C72.211 96.5769 74.8868 94.2846 75.5855 89.742C75.9005 87.7547 75.5989 86.1932 74.6881 85.0996C73.6878 83.8988 71.9136 83.2637 69.5579 83.2637ZM70.3699 89.9986C69.985 92.579 68.0554 92.579 66.1896 92.579H65.1275L65.8726 87.7599C65.9168 87.4687 66.1638 87.2542 66.452 87.2542H66.9388C68.2097 87.2542 69.4087 87.2542 70.0282 87.9944C70.3977 88.4361 70.5109 89.0922 70.3699 89.9986Z" fill="#8F8F8F"/>
<path d="M91.216 89.9354H87.7475C87.4521 89.9354 87.1968 90.1446 87.1513 90.4286L86.9977 91.3678L86.7552 91.0274C86.0043 89.9723 84.3299 89.6196 82.6587 89.6196C78.8259 89.6196 75.5524 92.4301 74.9148 96.3726C74.5833 98.3392 75.0546 100.22 76.2069 101.531C77.2638 102.737 78.7762 103.239 80.5755 103.239C83.6638 103.239 85.3763 101.317 85.3763 101.317L85.2217 102.25C85.1634 102.607 85.4472 102.927 85.8169 102.927H88.9411C89.4378 102.927 89.8572 102.578 89.9356 102.103L91.8101 90.6101C91.8694 90.2564 91.5867 89.9354 91.216 89.9354ZM86.3813 96.471C86.0467 98.3894 84.474 99.6773 82.4681 99.6773C81.4609 99.6773 80.656 99.3645 80.1392 98.7719C79.6266 98.1833 79.4317 97.3456 79.5948 96.4126C79.9073 94.5105 81.5064 93.1807 83.4816 93.1807C84.4665 93.1807 85.2672 93.4975 85.7946 94.0953C86.3231 94.6992 86.5328 95.542 86.3813 96.471Z" fill="#8F8F8F"/>
<path d="M109.139 89.6196H105.789C105.47 89.6196 105.169 89.7853 104.988 90.0624L100.368 97.1614L98.4097 90.3395C98.2866 89.9127 97.9089 89.6196 97.4814 89.6196H94.1897C93.7897 89.6196 93.5118 90.0274 93.6391 90.4202L97.3288 101.715L93.8599 106.824C93.5872 107.226 93.862 107.779 94.3332 107.779H97.6789C97.9965 107.779 98.2937 107.618 98.4738 107.346L109.615 90.5699C109.882 90.1686 109.608 89.6196 109.139 89.6196Z" fill="#8F8F8F"/>
<path d="M120.579 83.2637H113.54C113.059 83.2637 112.649 83.6212 112.574 84.107L109.728 102.547C109.671 102.911 109.947 103.239 110.306 103.239H113.918C114.254 103.239 114.541 102.989 114.594 102.648L115.401 97.4212C115.476 96.9344 115.886 96.5769 116.367 96.5769H118.594C123.231 96.5769 125.906 94.2846 126.606 89.742C126.922 87.7547 126.618 86.1932 125.708 85.0996C124.708 83.8988 122.935 83.2637 120.579 83.2637ZM121.391 89.9986C121.007 92.579 119.078 92.579 117.211 92.579H116.15L116.896 87.7599C116.94 87.4687 117.185 87.2542 117.474 87.2542H117.961C119.231 87.2542 120.431 87.2542 121.051 87.9944C121.42 88.4361 121.532 89.0922 121.391 89.9986Z" fill="#8F8F8F"/>
<path d="M142.234 89.9354H138.767C138.469 89.9354 138.216 90.1446 138.172 90.4286L138.018 91.3678L137.775 91.0274C137.024 89.9723 135.35 89.6196 133.679 89.6196C129.846 89.6196 126.573 92.4301 125.936 96.3726C125.605 98.3392 126.075 100.22 127.227 101.531C128.286 102.737 129.796 103.239 131.596 103.239C134.684 103.239 136.397 101.317 136.397 101.317L136.242 102.25C136.184 102.607 136.468 102.927 136.839 102.927H139.963C140.457 102.927 140.879 102.578 140.956 102.103L142.832 90.6101C142.889 90.2564 142.605 89.9354 142.234 89.9354ZM137.399 96.471C137.066 98.3894 135.491 99.6773 133.485 99.6773C132.48 99.6773 131.673 99.3645 131.156 98.7719C130.644 98.1833 130.451 97.3456 130.612 96.4126C130.926 94.5105 132.524 93.1807 134.499 93.1807C135.484 93.1807 136.284 93.4975 136.812 94.0953C137.343 94.6992 137.552 95.542 137.399 96.471Z" fill="#8F8F8F"/>
<path d="M145.675 83.7705L142.846 102.547C142.791 102.911 143.061 103.239 143.413 103.239H146.257C146.729 103.239 147.13 102.882 147.203 102.395L149.993 83.9566C150.048 83.5928 149.778 83.2637 149.426 83.2637H146.242C145.96 83.2647 145.718 83.4792 145.675 83.7705Z" fill="#8F8F8F"/>
<path d="M29.2795 106.871L29.8176 103.333L28.619 103.304H22.8954L26.873 77.1934C26.8853 77.1146 26.9255 77.0411 26.9841 76.9889C27.0427 76.9367 27.1179 76.908 27.1961 76.908H36.8468C40.0507 76.908 42.2618 77.5982 43.4161 78.9605C43.9573 79.5997 44.302 80.2675 44.4687 81.0025C44.6436 81.7737 44.6467 82.695 44.4759 83.8188L44.4635 83.9008V84.6209L45.0047 84.9383C45.4605 85.1886 45.8227 85.4752 46.1005 85.8032C46.5634 86.3497 46.8628 87.0442 46.9894 87.8675C47.1201 88.7143 47.0769 89.722 46.8628 90.8628C46.6159 92.1751 46.2167 93.318 45.6776 94.2532C45.1817 95.115 44.55 95.8297 43.7999 96.3836C43.0838 96.9098 42.2329 97.3092 41.271 97.5649C40.3388 97.8163 39.276 97.943 38.1103 97.943H37.3592C36.8221 97.943 36.3005 98.1433 35.891 98.5022C35.4805 98.8686 35.2089 99.3693 35.1255 99.9168L35.0689 100.235L34.1183 106.472L34.0751 106.701C34.0637 106.773 34.0442 106.81 34.0154 106.834C33.9897 106.856 33.9526 106.871 33.9166 106.871H29.2795Z" fill="#8F8F8F"/>
<path d="M45.2734 83.2637C45.2436 83.4514 45.2096 83.6433 45.1714 83.8405C43.8579 90.5011 39.3641 92.8021 33.6247 92.8021H30.7025C30.0006 92.8021 29.4091 93.3055 29.2998 93.9893L27.8036 103.361L27.3799 106.017C27.3088 106.466 27.6592 106.871 28.1179 106.871H33.3009C33.9146 106.871 34.436 106.431 34.5326 105.833L34.5836 105.573L35.5594 99.4565L35.6221 99.1208C35.7177 98.521 36.2401 98.0805 36.8539 98.0805H37.629C42.6506 98.0805 46.5816 96.0669 47.7305 90.24C48.2105 87.8058 47.962 85.7733 46.692 84.3439C46.3076 83.9129 45.8308 83.5552 45.2734 83.2637Z" fill="#8F8F8F"/>
<path d="M40.2928 82.3557H32.8558C32.6727 82.3557 32.4987 82.399 32.343 82.4771C32 82.649 31.7451 82.9877 31.6834 83.4024L30.1014 93.8545L30.0558 94.1595C30.16 93.4715 30.7235 92.965 31.3921 92.965H34.1759C39.6433 92.965 45.2726 88.2576 46.1677 83.4024C46.2043 83.204 44.3775 82.3557 40.2928 82.3557Z" fill="#767676"/>
<path d="M32.0219 84.077C32.0855 83.6647 32.3482 83.328 32.7016 83.158C32.8632 83.0804 33.0414 83.0374 33.2301 83.0374H40.8941C41.802 83.0374 42.6495 83.0972 43.423 83.2231C43.644 83.2587 43.8588 83.2996 44.0683 83.3458C44.2768 83.393 44.48 83.4455 44.6771 83.5032C44.7751 83.5325 44.872 83.563 44.9669 83.5934C45.3473 83.7203 45.7007 83.8704 46.027 84.0435C46.4106 81.5812 46.0239 79.9048 44.701 78.3867C43.2427 76.7155 40.6105 76 37.2424 76H27.4644C26.7764 76 26.1895 76.5036 26.0832 77.1886L22.0104 103.17C21.9301 103.684 22.3242 104.147 22.8391 104.147H28.8759L30.3916 94.4694L32.0219 84.077Z" fill="#8F8F8F"/>
<path d="M153.362 28.4709C153.344 27.8993 153.077 27.6043 152.56 27.5849H149.796C149.141 27.6254 148.803 27.9883 148.788 28.6708V33.6966C148.803 34.4011 149.177 34.7604 149.904 34.7807H152.437C152.7 34.7807 152.919 34.6821 153.093 34.4804C153.275 34.3289 153.362 34.1343 153.362 33.893V28.4709ZM145.239 27.7575C145.257 26.5 145.534 25.5445 146.071 24.891C146.353 24.6171 146.705 24.3882 147.133 24.1988C147.578 23.9972 148.01 23.8994 148.428 23.8994H153.502C155.74 23.9188 156.877 25.1561 156.913 27.614V35.1788C156.897 36.0515 156.559 36.8088 155.905 37.442C155.258 38.1078 154.485 38.4468 153.585 38.4671H148.788V43.9209H145.239V27.7575Z" fill="#8F8F8F"/>
<path d="M163.32 34.0506C163.32 34.2611 163.415 34.4276 163.603 34.5526C163.77 34.7023 163.981 34.7807 164.247 34.7807H166.973C167.589 34.7807 167.909 34.5394 167.927 34.0506V33.022C167.927 32.4602 167.602 32.1766 166.947 32.1766H164.247C163.892 32.1766 163.646 32.2365 163.509 32.3492C163.383 32.4822 163.32 32.7455 163.32 33.1356V34.0506ZM167.927 28.3819C167.945 27.8306 167.627 27.5673 166.972 27.5849H159.824V23.8994H167.872C170.217 23.9382 171.407 25.083 171.447 27.3436V35.0537C171.427 36.0286 171.131 36.8326 170.558 37.472C169.959 38.1342 169.186 38.4671 168.239 38.4671H163.374C161.007 38.4468 159.806 37.354 159.769 35.1814V32.2066C159.788 29.9363 160.935 28.7826 163.206 28.743H167.927V28.3819Z" fill="#8F8F8F"/>
<path d="M181.415 40.2346C181.696 40.2169 181.94 40.1148 182.138 39.9316C182.328 39.7608 182.424 39.5644 182.424 39.3416V38.4671H177.88C177.287 38.4671 176.813 38.3905 176.46 38.2381C176.086 38.0999 175.714 37.8418 175.339 37.4755C174.985 37.0871 174.729 36.6811 174.574 36.2567C174.413 35.8683 174.331 35.3743 174.331 34.7807V23.8994H177.88V33.613C177.88 34.3915 178.194 34.7807 178.831 34.7807H181.336C181.634 34.7807 181.893 34.6821 182.11 34.4804C182.319 34.3096 182.424 34.107 182.424 33.8692V23.8994H185.943V39.9519C185.923 41.1399 185.622 42.091 185.041 42.8122C184.451 43.5335 183.644 43.9024 182.615 43.9209H174.331V40.2346H181.415Z" fill="#8F8F8F"/>
<path d="M188.73 34.7807H195.054C195.632 34.7604 195.933 34.5262 195.951 34.0771V33.7459C195.951 33.6499 195.922 33.5434 195.867 33.4289C195.725 33.1506 195.552 33.0124 195.346 33.0124H192.21C191.28 32.9939 190.486 32.6698 189.819 32.0445C189.144 31.4668 188.798 30.7561 188.778 29.9222V27.1737C188.814 25.0293 189.967 23.9382 192.237 23.8994H199.572V27.5849H193.358C192.628 27.5849 192.261 27.8113 192.261 28.2621V28.6188C192.261 29.0864 192.636 29.3207 193.385 29.3207H196.51C197.343 29.3401 198.053 29.6624 198.645 30.2912C199.242 30.9243 199.552 31.6773 199.572 32.5518V35.2404C199.552 35.996 199.207 36.7498 198.542 37.5019C198.218 37.8709 197.886 38.1245 197.554 38.2681C197.211 38.4002 196.745 38.4671 196.15 38.4671H188.73V34.7807Z" fill="#8F8F8F"/>
<path d="M205.645 34.0506C205.645 34.2611 205.741 34.4276 205.932 34.5526C206.098 34.7023 206.31 34.7807 206.573 34.7807H209.304C209.92 34.7807 210.238 34.5394 210.256 34.0506V33.022C210.256 32.4602 209.927 32.1766 209.274 32.1766H206.573C206.218 32.1766 205.973 32.2365 205.837 32.3492C205.711 32.4822 205.645 32.7455 205.645 33.1356V34.0506ZM210.256 28.3819C210.272 27.8306 209.954 27.5673 209.298 27.5849H202.151V23.8994H210.202C212.544 23.9382 213.735 25.083 213.771 27.3436V35.0537C213.752 36.0286 213.454 36.8326 212.884 37.472C212.289 38.1342 211.516 38.4671 210.568 38.4671H205.699C203.333 38.4468 202.131 37.354 202.098 35.1814V32.2066C202.114 29.9363 203.26 28.7826 205.533 28.743H210.256V28.3819Z" fill="#8F8F8F"/>
<path d="M216.656 21.8098C216.678 20.8146 217.041 20.0159 217.752 19.417C218.442 18.8085 219.348 18.4959 220.468 18.4783H222.722V22.0387H221.356C220.606 22.0563 220.224 22.4192 220.207 23.1202V23.9004H222.722V27.5895H220.207V38.469H216.656V21.8098Z" fill="#8F8F8F"/>
<path d="M232.815 28.3132V28.2278C232.815 28.0385 232.739 27.8773 232.587 27.7575C232.421 27.6413 232.219 27.5849 231.976 27.5849H229.505C229.188 27.5849 228.933 27.6748 228.735 27.8588C228.49 28.0288 228.365 28.2525 228.365 28.5281V30.0076L232.815 28.3132ZM228.422 33.5231V33.753C228.422 34.048 228.497 34.2823 228.652 34.4522C228.763 34.6697 228.913 34.7807 229.112 34.7807H236.403V38.4671H228.652C227.944 38.4671 227.393 38.4002 227.003 38.2663C226.577 38.1245 226.195 37.8929 225.861 37.5706C225.471 37.1805 225.205 36.7833 225.072 36.3747C224.926 35.9484 224.853 35.3831 224.853 34.6785L224.823 27.3014C224.862 25.0724 226.014 23.9382 228.277 23.8994H233.061C235.272 23.9382 236.391 25.1121 236.427 27.4273V30.3414L228.422 33.5231Z" fill="#8F8F8F"/>
<path d="M243.94 38.4672C243.402 38.4672 242.912 38.417 242.466 38.3254C242 38.2488 241.536 38.0304 241.061 37.6614C240.574 37.2326 240.237 36.7517 240.052 36.2207C239.857 35.6985 239.763 35.1067 239.763 34.4409V27.5622C239.743 27.0012 239.799 26.5089 239.929 26.0818C240.048 25.6556 240.299 25.2381 240.678 24.8295C241.11 24.4006 241.551 24.1153 242.016 23.9753C242.464 23.8617 242.968 23.8044 243.534 23.8044H248.973V24.6666H243.66C242.722 24.6666 241.985 24.8612 241.445 25.2513C240.894 25.6767 240.613 26.4103 240.613 27.4442V34.3273C240.613 34.8117 240.686 35.2828 240.831 35.7372C240.98 36.1837 241.228 36.5756 241.585 36.9182C241.972 37.2149 242.357 37.3999 242.732 37.4756C243.123 37.5628 243.543 37.6042 243.988 37.6042H249.059V38.4672H243.94Z" fill="#8F8F8F"/>
<path d="M262.963 29.5427H255.832C254.978 29.5621 254.309 29.829 253.827 30.3433C253.329 30.8655 253.083 31.5814 253.083 32.4912V34.6866C253.083 35.112 253.126 35.5012 253.217 35.8517C253.307 36.2207 253.53 36.5501 253.884 36.8327C254.5 37.3488 255.182 37.6042 255.928 37.6042H260.249C262.055 37.5848 262.963 36.6232 262.963 34.7139V29.5427ZM263.811 34.499C263.811 35.053 263.769 35.5391 263.699 35.9671C263.584 36.4321 263.348 36.8803 262.99 37.3065C262.245 38.1 261.321 38.4866 260.219 38.4672H255.979C254.877 38.4672 253.984 38.1343 253.293 37.4721C252.586 36.8178 252.228 35.9081 252.228 34.7412V32.5237C252.264 30.0218 253.496 28.7405 255.925 28.6824H262.99V27.7119C262.99 26.9122 262.761 26.2121 262.305 25.6098C262.016 25.2188 261.673 24.9572 261.285 24.8225C260.892 24.7186 260.451 24.6666 259.96 24.6666H252.253V23.8044H259.559C260.227 23.8044 260.831 23.852 261.378 23.9453C261.659 24.0017 261.915 24.1127 262.151 24.2729C262.401 24.4253 262.634 24.6481 262.85 24.9405C263.505 25.7947 263.825 26.7802 263.811 27.8898V34.499Z" fill="#8F8F8F"/>
<path d="M271.786 24.6666C269.808 24.7036 268.833 25.7947 268.87 27.9417V38.4672H268.021V27.9452C267.981 25.1835 269.281 23.8044 271.923 23.8044H272.867V24.6666H271.786Z" fill="#8F8F8F"/>
<path d="M286.152 24.671H279.43C278.945 24.671 278.511 24.7256 278.12 24.8295C277.711 24.9228 277.315 25.1738 276.945 25.5824C276.59 25.955 276.367 26.3239 276.274 26.6929C276.15 27.0655 276.093 27.5119 276.113 28.0324V34.7429C276.113 35.8587 276.433 36.6178 277.081 37.0256C277.401 37.2149 277.752 37.3567 278.145 37.4518C278.537 37.5575 278.975 37.6094 279.457 37.6094H282.396C283.494 37.6094 284.392 37.3541 285.082 36.8389C285.775 36.3554 286.128 35.5214 286.152 34.3326V24.671ZM287 34.3916C286.925 37.1691 285.471 38.5306 282.639 38.4734H279.488C278.822 38.4734 278.227 38.4144 277.701 38.3025C277.159 38.1607 276.641 37.827 276.142 37.3065C275.766 36.8389 275.525 36.366 275.428 35.8816C275.298 35.3981 275.242 34.8601 275.262 34.2727V28.0104C275.298 25.1897 276.704 23.7877 279.481 23.8088H286.152V19.0542H287V34.3916Z" fill="#8F8F8F"/>
<path d="M125.524 23.3455C125.802 23.2213 126.081 23.1244 126.36 23.0637C126.872 20.5908 129.039 18.7362 131.636 18.7362C134.234 18.7362 136.402 20.5935 136.913 23.0654C137.71 23.2187 138.37 23.5445 138.884 24.0297C138.905 23.5551 138.886 23.098 138.83 22.6674C138.502 18.9317 135.403 16 131.624 16C127.735 16 124.568 19.1166 124.403 23.0126C124.381 23.349 124.374 23.6995 124.386 24.0659C124.713 23.7876 125.085 23.5375 125.524 23.3455Z" fill="#8F8F8F"/>
<path d="M135.858 23.8994H127.19C126.773 23.8994 126.341 23.9972 125.896 24.1988C125.466 24.3882 125.114 24.6171 124.832 24.891C124.294 25.5445 124.019 26.5 124 27.7575V34.6072C124.019 35.8674 124.294 36.822 124.832 37.472C125.114 37.7502 125.466 37.9792 125.896 38.1703C126.341 38.3676 126.773 38.4671 127.19 38.4671H135.858C138.097 38.4468 139.236 37.2051 139.272 34.7508V27.614C139.236 25.1561 138.097 23.9188 135.858 23.8994Z" fill="#8F8F8F"/>
<path fill-rule="evenodd" clip-rule="evenodd" d="M306.417 153.335C304.897 159.518 298.722 163.281 292.625 161.739C286.53 160.197 282.82 153.934 284.341 147.751C285.86 141.567 292.035 137.804 298.13 139.345C304.227 140.887 307.937 147.151 306.417 153.335ZM300.396 148.898C300.623 147.362 299.47 146.537 297.893 145.986L298.405 143.905L297.156 143.59L296.658 145.615C296.33 145.532 295.993 145.454 295.658 145.377L296.159 143.338L294.911 143.022L294.4 145.102C294.128 145.039 293.861 144.977 293.602 144.912L293.604 144.905L291.882 144.469L291.55 145.822C291.55 145.822 292.476 146.037 292.456 146.05C292.962 146.178 293.054 146.518 293.038 146.787L292.456 149.157C292.491 149.166 292.536 149.179 292.586 149.199C292.544 149.189 292.499 149.177 292.454 149.166L291.637 152.486C291.575 152.642 291.418 152.876 291.065 152.787C291.077 152.805 290.157 152.557 290.157 152.557L289.538 154.007L291.162 154.418C291.465 154.495 291.761 154.575 292.052 154.651L291.536 156.755L292.783 157.071L293.295 154.989C293.635 155.082 293.966 155.169 294.29 155.251L293.78 157.323L295.028 157.638L295.545 155.538C297.674 155.947 299.275 155.782 299.949 153.829C300.492 152.256 299.922 151.349 298.802 150.757C299.618 150.567 300.232 150.022 300.396 148.898ZM297.543 152.955C297.157 154.528 294.547 153.678 293.7 153.465L294.386 150.677C295.232 150.891 297.947 151.315 297.543 152.955ZM297.929 148.875C297.577 150.306 295.405 149.579 294.7 149.401L295.321 146.872C296.026 147.051 298.296 147.383 297.929 148.875Z" fill="#8F8F8F"/>
<path d="M317.349 145.984C318.271 145.984 319.069 146.151 319.739 146.481C320.412 146.813 320.967 147.261 321.413 147.825C321.852 148.391 322.18 149.053 322.391 149.811C322.601 150.572 322.706 151.39 322.706 152.265C322.706 153.61 322.463 154.88 321.973 156.078C321.482 157.277 320.817 158.317 319.97 159.204C319.125 160.091 318.126 160.789 316.975 161.305C315.825 161.822 314.575 162.08 313.233 162.08C313.059 162.08 312.754 162.075 312.323 162.066C311.892 162.057 311.397 162.012 310.842 161.936C310.284 161.857 309.693 161.74 309.07 161.584C308.447 161.43 307.855 161.215 307.298 160.941L312.281 139.705L316.744 139.003L314.96 146.539C315.342 146.365 315.727 146.23 316.111 146.131C316.495 146.034 316.908 145.984 317.349 145.984ZM313.605 158.489C314.277 158.489 314.91 158.321 315.505 157.992C316.102 157.662 316.617 157.217 317.048 156.663C317.48 156.106 317.821 155.479 318.07 154.778C318.319 154.077 318.445 153.346 318.445 152.585C318.445 151.651 318.291 150.922 317.984 150.395C317.677 149.87 317.109 149.606 316.284 149.606C316.014 149.606 315.666 149.658 315.234 149.752C314.801 149.851 314.414 150.057 314.066 150.367L312.166 158.37C312.281 158.39 312.382 158.41 312.469 158.428C312.553 158.448 312.647 158.462 312.74 158.472C312.839 158.483 312.951 158.489 313.087 158.489C313.224 158.489 313.394 158.489 313.605 158.489Z" fill="#8F8F8F"/>
<path d="M327.334 161.674H323.071L326.671 146.309H330.963L327.334 161.674ZM329.409 144.437C328.814 144.437 328.274 144.258 327.795 143.898C327.313 143.54 327.074 142.989 327.074 142.247C327.074 141.838 327.156 141.455 327.318 141.094C327.483 140.733 327.698 140.423 327.967 140.159C328.236 139.897 328.548 139.688 328.903 139.53C329.259 139.375 329.638 139.297 330.042 139.297C330.637 139.297 331.173 139.477 331.654 139.837C332.132 140.199 332.373 140.75 332.373 141.488C332.373 141.898 332.292 142.282 332.128 142.643C331.965 143.003 331.75 143.314 331.481 143.578C331.214 143.84 330.899 144.049 330.545 144.205C330.189 144.363 329.811 144.437 329.409 144.437Z" fill="#8F8F8F"/>
<path fill-rule="evenodd" clip-rule="evenodd" d="M334.699 142.481L339.164 141.78L338.068 146.309H342.849L341.986 149.872H337.233L335.967 155.246C335.85 155.694 335.784 156.112 335.766 156.501C335.745 156.892 335.794 157.227 335.909 157.51C336.023 157.793 336.229 158.011 336.528 158.165C336.825 158.322 337.251 158.401 337.809 158.401C338.269 158.401 338.717 158.357 339.15 158.269C339.581 158.182 340.017 158.062 340.459 157.904L340.777 161.236C340.201 161.45 339.577 161.634 338.905 161.789C338.232 161.947 337.435 162.022 336.514 162.022C335.189 162.022 334.163 161.823 333.431 161.426C332.701 161.026 332.184 160.479 331.875 159.787C331.571 159.098 331.434 158.304 331.472 157.408C331.512 156.511 331.645 155.568 331.875 154.574L334.699 142.481Z" fill="#8F8F8F"/>
<path fill-rule="evenodd" clip-rule="evenodd" d="M342.662 155.538C342.662 154.215 342.873 152.967 343.295 151.799C343.716 150.629 344.323 149.607 345.111 148.729C345.896 147.856 346.852 147.164 347.978 146.656C349.098 146.151 350.352 145.897 351.734 145.897C352.6 145.897 353.372 145.98 354.052 146.146C354.735 146.314 355.353 146.53 355.912 146.802L354.441 150.193C354.057 150.035 353.659 149.896 353.247 149.769C352.834 149.641 352.331 149.579 351.735 149.579C350.312 149.579 349.187 150.076 348.35 151.068C347.516 152.06 347.096 153.396 347.096 155.071C347.096 156.064 347.307 156.867 347.731 157.481C348.153 158.095 348.932 158.401 350.063 158.401C350.622 158.401 351.161 158.342 351.677 158.226C352.196 158.109 352.656 157.962 353.06 157.788L353.378 161.264C352.839 161.476 352.244 161.668 351.592 161.835C350.939 161.997 350.161 162.081 349.258 162.081C348.067 162.081 347.059 161.905 346.234 161.557C345.409 161.203 344.728 160.734 344.191 160.139C343.651 159.544 343.263 158.848 343.024 158.049C342.784 157.251 342.662 156.413 342.662 155.538Z" fill="#8F8F8F"/>
<path d="M361.598 162.081C360.581 162.081 359.697 161.924 358.948 161.613C358.2 161.302 357.581 160.865 357.091 160.298C356.601 159.735 356.234 159.067 355.982 158.298C355.731 157.529 355.61 156.677 355.61 155.744C355.61 154.574 355.795 153.404 356.17 152.237C356.542 151.068 357.095 150.017 357.827 149.083C358.554 148.148 359.449 147.383 360.504 146.787C361.558 146.195 362.77 145.897 364.131 145.897C365.13 145.897 366.009 146.054 366.769 146.366C367.525 146.676 368.148 147.117 368.641 147.68C369.128 148.246 369.498 148.911 369.747 149.681C369.998 150.449 370.122 151.303 370.122 152.237C370.122 153.403 369.939 154.574 369.576 155.744C369.213 156.909 368.674 157.962 367.963 158.898C367.253 159.832 366.366 160.596 365.3 161.19C364.235 161.783 363 162.081 361.598 162.081ZM363.729 149.579C363.097 149.579 362.538 149.765 362.06 150.133C361.58 150.505 361.177 150.972 360.852 151.536C360.523 152.102 360.279 152.72 360.115 153.391C359.951 154.064 359.871 154.699 359.871 155.304C359.871 156.279 360.026 157.038 360.331 157.584C360.64 158.128 361.195 158.401 362.002 158.401C362.636 158.401 363.192 158.217 363.673 157.845C364.151 157.476 364.554 157.008 364.882 156.443C365.208 155.88 365.454 155.261 365.619 154.588C365.78 153.918 365.862 153.278 365.862 152.675C365.862 151.703 365.708 150.942 365.4 150.396C365.093 149.852 364.535 149.579 363.729 149.579Z" fill="#8F8F8F"/>
<path d="M374.767 161.674H370.501L374.101 146.309H378.395L374.767 161.674ZM376.838 144.437C376.244 144.437 375.704 144.258 375.227 143.898C374.746 143.54 374.505 142.989 374.505 142.247C374.505 141.838 374.588 141.455 374.751 141.094C374.913 140.733 375.13 140.423 375.399 140.159C375.667 139.897 375.982 139.688 376.335 139.53C376.69 139.375 377.069 139.297 377.471 139.297C378.067 139.297 378.606 139.477 379.085 139.837C379.565 140.199 379.807 140.75 379.807 141.488C379.807 141.898 379.721 142.282 379.56 142.643C379.399 143.003 379.182 143.314 378.914 143.578C378.643 143.84 378.332 144.049 377.978 144.205C377.621 144.363 377.243 144.437 376.838 144.437Z" fill="#8F8F8F"/>
<path fill-rule="evenodd" clip-rule="evenodd" d="M381.467 147.008C381.79 146.912 382.152 146.797 382.545 146.671C382.939 146.546 383.38 146.429 383.872 146.323C384.359 146.215 384.908 146.127 385.512 146.059C386.116 145.989 386.805 145.955 387.57 145.955C389.818 145.955 391.368 146.619 392.224 147.943C393.078 149.267 393.226 151.079 392.672 153.376L390.711 161.672H386.42L388.32 153.551C388.436 153.044 388.527 152.554 388.594 152.075C388.662 151.6 388.658 151.182 388.579 150.819C388.503 150.462 388.325 150.169 388.048 149.942C387.767 149.719 387.342 149.606 386.765 149.606C386.209 149.606 385.644 149.667 385.067 149.784L382.273 161.672H377.98L381.467 147.008Z" fill="#8F8F8F"/>
<path d="M61.1561 154.877C61.1543 154.985 61.1098 155.088 61.0323 155.163C60.9549 155.238 60.8508 155.28 60.7428 155.278H53.1305C53.3257 157.161 54.7379 158.884 56.7357 158.884C58.102 158.884 59.1124 158.367 59.8702 157.276C59.9055 157.219 59.9543 157.171 60.0123 157.137C60.0704 157.103 60.1359 157.084 60.2031 157.081C60.2533 157.08 60.3032 157.088 60.3498 157.107C60.3964 157.126 60.4388 157.153 60.4742 157.189C60.5097 157.224 60.5376 157.267 60.5561 157.313C60.5746 157.36 60.5835 157.41 60.582 157.46C60.5823 157.529 60.5623 157.597 60.5246 157.655C59.7554 158.987 58.2283 159.641 56.7357 159.641C54.1754 159.641 52.3383 157.345 52.3383 154.9C52.3383 152.454 54.1639 150.158 56.7357 150.158C59.3076 150.158 61.1446 152.431 61.1561 154.877ZM60.3409 154.521C60.1802 152.638 58.7335 150.915 56.7357 150.915C54.7379 150.915 53.3257 152.638 53.1305 154.521H60.3409Z" fill="#8F8F8F"/>
<path d="M70.4106 150.342C70.5101 150.345 70.6049 150.385 70.6753 150.456C70.7457 150.526 70.7866 150.621 70.7895 150.721C70.7909 150.771 70.7821 150.821 70.7635 150.867C70.745 150.914 70.7171 150.956 70.6817 150.992C70.6462 151.027 70.6039 151.055 70.5572 151.074C70.5106 151.092 70.4607 151.101 70.4106 151.099H68.3669V159.125C68.366 159.225 68.3258 159.321 68.2549 159.392C68.184 159.463 68.0882 159.503 67.988 159.504C67.8884 159.501 67.7937 159.46 67.7233 159.39C67.6528 159.319 67.612 159.225 67.6091 159.125V151.099H65.6458C65.5956 151.101 65.5457 151.092 65.4991 151.074C65.4525 151.055 65.4101 151.027 65.3747 150.992C65.3392 150.956 65.3113 150.914 65.2928 150.867C65.2743 150.821 65.2654 150.771 65.2669 150.721C65.2678 150.62 65.308 150.525 65.3788 150.454C65.4497 150.383 65.5456 150.343 65.6458 150.342H67.6091V147.414C67.6093 147.317 67.6441 147.223 67.7072 147.149C67.7704 147.076 67.8577 147.027 67.9535 147.012C68.0071 147.005 68.0616 147.009 68.1133 147.025C68.1649 147.041 68.2125 147.068 68.2529 147.104C68.2932 147.14 68.3253 147.184 68.347 147.234C68.3686 147.283 68.3793 147.337 68.3784 147.391V150.342H70.4106Z" fill="#8F8F8F"/>
<path d="M82.8676 154.222V159.079C82.8647 159.178 82.8238 159.273 82.7534 159.344C82.683 159.414 82.5883 159.455 82.4887 159.458C82.4385 159.459 82.3886 159.45 82.342 159.432C82.2954 159.413 82.2531 159.385 82.2176 159.35C82.1821 159.314 82.1543 159.272 82.1357 159.226C82.1172 159.179 82.1084 159.129 82.1098 159.079V154.222C82.1098 152.58 81.1798 150.95 79.3542 150.95C77.012 150.95 76.0016 152.994 76.1394 155.095C76.1394 155.152 76.1624 155.393 76.1624 155.428V159.067C76.1622 159.164 76.1274 159.258 76.0643 159.332C76.0011 159.405 75.9138 159.454 75.8179 159.469C75.7644 159.476 75.7099 159.472 75.6582 159.456C75.6066 159.44 75.5589 159.413 75.5186 159.377C75.4783 159.341 75.4462 159.297 75.4245 159.248C75.4029 159.198 75.3922 159.144 75.3931 159.09V143.12C75.394 143.019 75.4342 142.924 75.5051 142.853C75.576 142.782 75.6718 142.742 75.772 142.741C75.8716 142.744 75.9663 142.784 76.0367 142.855C76.1072 142.925 76.148 143.02 76.1509 143.12V152.144C76.8053 150.973 77.9765 150.181 79.3428 150.181C81.5931 150.181 82.8676 152.144 82.8676 154.222Z" fill="#8F8F8F"/>
<path d="M96.5424 154.877C96.5406 154.985 96.4961 155.088 96.4186 155.163C96.3412 155.238 96.2371 155.28 96.1291 155.278H88.5168C88.712 157.161 90.1242 158.884 92.122 158.884C93.4883 158.884 94.4987 158.367 95.2565 157.276C95.2917 157.219 95.3406 157.171 95.3986 157.137C95.4567 157.103 95.5222 157.084 95.5894 157.081C95.6396 157.08 95.6895 157.088 95.7361 157.107C95.7827 157.126 95.825 157.153 95.8605 157.189C95.896 157.224 95.9238 157.267 95.9424 157.313C95.9609 157.36 95.9697 157.41 95.9683 157.46C95.9686 157.529 95.9486 157.597 95.9109 157.655C95.1417 158.987 93.6146 159.641 92.122 159.641C89.5617 159.641 87.7246 157.345 87.7246 154.9C87.7246 152.454 89.5502 150.158 92.122 150.158C94.6709 150.158 96.5309 152.431 96.5424 154.877ZM95.7157 154.521C95.555 152.638 94.1083 150.915 92.1105 150.915C90.1128 150.915 88.7005 152.638 88.5054 154.521H95.7157Z" fill="#8F8F8F"/>
<path d="M105.9 150.697C105.907 150.799 105.874 150.9 105.807 150.978C105.74 151.055 105.646 151.103 105.544 151.111C103.305 151.444 102.294 153.269 102.294 155.393V159.033C102.294 159.13 102.259 159.224 102.196 159.297C102.133 159.371 102.046 159.42 101.95 159.435C101.896 159.442 101.842 159.437 101.79 159.422C101.739 159.406 101.691 159.379 101.651 159.343C101.61 159.307 101.578 159.263 101.557 159.213C101.535 159.164 101.524 159.11 101.525 159.056V150.755C101.525 150.658 101.56 150.564 101.623 150.49C101.686 150.417 101.774 150.368 101.87 150.353C101.923 150.346 101.978 150.35 102.029 150.366C102.081 150.382 102.129 150.409 102.169 150.445C102.209 150.481 102.241 150.525 102.263 150.575C102.285 150.624 102.295 150.678 102.294 150.732V152.42C102.926 151.352 104.177 150.342 105.486 150.342C105.682 150.342 105.9 150.479 105.9 150.697Z" fill="#8F8F8F"/>
<path d="M118.414 154.877C118.413 154.985 118.368 155.088 118.291 155.163C118.213 155.238 118.109 155.28 118.001 155.278H110.389C110.584 157.161 111.996 158.884 113.994 158.884C115.36 158.884 116.371 158.367 117.128 157.276C117.164 157.219 117.213 157.171 117.271 157.137C117.329 157.103 117.394 157.084 117.461 157.081C117.512 157.08 117.561 157.088 117.608 157.107C117.655 157.126 117.697 157.153 117.732 157.189C117.768 157.224 117.796 157.267 117.814 157.313C117.833 157.36 117.842 157.41 117.84 157.46C117.841 157.529 117.821 157.597 117.783 157.655C117.014 158.987 115.487 159.641 113.994 159.641C111.434 159.641 109.597 157.345 109.597 154.9C109.597 152.454 111.422 150.158 113.994 150.158C116.566 150.158 118.403 152.431 118.414 154.877ZM117.599 154.521C117.438 152.638 115.992 150.915 113.994 150.915C111.996 150.915 110.584 152.638 110.389 154.521H117.599Z" fill="#8F8F8F"/>
<path d="M130.723 150.789V159.125C130.72 159.224 130.679 159.319 130.609 159.39C130.538 159.46 130.444 159.501 130.344 159.504C130.294 159.505 130.244 159.496 130.197 159.478C130.151 159.459 130.108 159.431 130.073 159.396C130.037 159.36 130.01 159.318 129.991 159.271C129.973 159.225 129.964 159.175 129.965 159.125V157.54C129.334 158.792 128.22 159.699 126.796 159.699C124.534 159.699 123.283 157.736 123.283 155.657V150.778C123.284 150.678 123.324 150.582 123.395 150.511C123.466 150.44 123.562 150.4 123.662 150.399C123.761 150.402 123.856 150.443 123.927 150.513C123.997 150.583 124.038 150.678 124.041 150.778V155.657C124.041 157.299 124.971 158.93 126.796 158.93C129.357 158.93 129.965 156.53 129.965 153.878V150.766C129.966 150.705 129.982 150.645 130.01 150.59C130.039 150.536 130.081 150.49 130.132 150.455C130.182 150.42 130.24 150.398 130.301 150.39C130.362 150.382 130.424 150.389 130.482 150.41C130.554 150.444 130.615 150.497 130.658 150.565C130.7 150.632 130.723 150.71 130.723 150.789Z" fill="#8F8F8F"/>
<path d="M150 154.188V159.067C149.997 159.167 149.956 159.262 149.886 159.332C149.816 159.402 149.721 159.443 149.621 159.446C149.571 159.448 149.521 159.439 149.475 159.42C149.428 159.402 149.386 159.374 149.35 159.338C149.315 159.303 149.287 159.261 149.268 159.214C149.25 159.167 149.241 159.117 149.242 159.067V154.188C149.242 152.546 148.312 150.938 146.487 150.938C144.19 150.938 143.318 153.395 143.318 155.301V159.067C143.315 159.167 143.274 159.262 143.204 159.332C143.133 159.402 143.039 159.443 142.939 159.446C142.889 159.448 142.839 159.439 142.792 159.42C142.746 159.402 142.703 159.374 142.668 159.338C142.632 159.303 142.605 159.261 142.586 159.214C142.568 159.167 142.559 159.117 142.56 159.067V154.188C142.56 152.546 141.63 150.938 139.805 150.938C137.485 150.938 136.532 152.764 136.613 155.198C136.613 155.255 136.636 155.359 136.613 155.393V159.056C136.613 159.153 136.578 159.247 136.515 159.32C136.451 159.394 136.364 159.443 136.268 159.458C136.215 159.465 136.16 159.46 136.109 159.444C136.057 159.429 136.009 159.402 135.969 159.366C135.929 159.33 135.897 159.285 135.875 159.236C135.853 159.186 135.842 159.133 135.843 159.079V150.755C135.844 150.658 135.878 150.564 135.942 150.49C136.005 150.417 136.092 150.368 136.188 150.353C136.241 150.346 136.296 150.35 136.348 150.366C136.399 150.382 136.447 150.409 136.487 150.445C136.528 150.481 136.56 150.525 136.581 150.575C136.603 150.624 136.614 150.678 136.613 150.732V152.121C137.267 150.95 138.438 150.181 139.805 150.181C141.355 150.181 142.56 151.168 143.054 152.603C143.685 151.18 144.914 150.181 146.487 150.181C148.726 150.181 150 152.121 150 154.188Z" fill="#8F8F8F"/>
<path d="M35.5296 148.493L26 152.821L35.5296 158.459L45.0707 152.821L35.5296 148.493Z" fill="black"/>
<path opacity="0.45" d="M26 152.821L35.5296 158.459V137L26 152.821Z" fill="#FBFBFB"/>
<path opacity="0.8" d="M35.53 137V158.459L45.0711 152.821L35.53 137Z" fill="#808080"/>
<path opacity="0.45" d="M26 154.635L35.5296 168.069V160.261L26 154.635Z" fill="#C2C2C2"/>
<path opacity="0.8" d="M35.53 160.261V168.069L45.0711 154.635L35.53 160.261Z" fill="#898989"/>
<path d="M296.132 75H291.058C291.058 79.1632 289.147 82.9624 285.826 85.4649L283.824 86.9664L291.604 97.5678H297.997L290.831 87.8081C294.221 84.4412 296.132 79.8912 296.132 75Z" fill="#8F8F8F"/>
<rect x="278" y="75" width="5.18696" height="22.5678" fill="#8F8F8F"/>
<rect x="299.498" y="75" width="4.89121" height="22.5678" fill="#8F8F8F"/>
<path d="M347.296 81.5291C345.43 81.5291 343.656 82.0978 342.473 83.713V81.9613H337.832V97.5677H342.541V89.3777C342.541 87.0118 344.133 85.8515 346.044 85.8515C348.092 85.8515 349.275 87.08 349.275 89.355V97.5904H353.938V87.6488C353.938 84.0088 351.049 81.5291 347.296 81.5291Z" fill="#8F8F8F"/>
<path fill-rule="evenodd" clip-rule="evenodd" d="M319.177 82.9623V81.9613H323.841V97.5677H319.177V96.5667C317.858 97.4767 316.265 97.9999 314.536 97.9999C309.986 97.9999 306.301 94.3144 306.301 89.7645C306.301 85.2145 309.986 81.5291 314.536 81.5291C316.265 81.5291 317.858 82.0523 319.177 82.9623ZM310.692 89.7646C310.692 91.9713 312.58 93.7685 314.923 93.7685C317.266 93.7685 319.155 91.9713 319.155 89.7646C319.155 87.5578 317.266 85.7606 314.923 85.7606C312.58 85.7606 310.692 87.5578 310.692 89.7646Z" fill="#8F8F8F"/>
<path d="M331.075 83.9862V81.9614H326.298V97.5678H331.098V90.2879C331.098 87.8309 333.76 86.5114 335.602 86.5114C335.625 86.5114 335.648 86.5114 335.648 86.5114V81.9614C333.76 81.9614 332.008 82.7804 331.075 83.9862Z" fill="#8F8F8F"/>
<path fill-rule="evenodd" clip-rule="evenodd" d="M368.453 82.9623V81.9613H373.117V97.5677H368.453V96.5667C367.134 97.4767 365.541 97.9999 363.812 97.9999C359.262 97.9999 355.577 94.3144 355.577 89.7645C355.577 85.2145 359.262 81.5291 363.812 81.5291C365.541 81.5291 367.134 82.0523 368.453 82.9623ZM359.968 89.7646C359.968 91.9713 361.856 93.7685 364.199 93.7685C366.542 93.7685 368.453 91.9713 368.431 89.7646C368.431 87.5578 366.542 85.7606 364.199 85.7606C361.856 85.7606 359.968 87.5578 359.968 89.7646Z" fill="#8F8F8F"/>
<path fill-rule="evenodd" clip-rule="evenodd" d="M376.325 82.0525C376.575 82.0525 376.735 82.189 376.735 82.4165C376.735 82.5757 376.666 82.6895 376.53 82.7577L376.735 83.2355H376.507L376.325 82.8032H376.098V83.2355H375.893V82.0525H376.325ZM376.097 82.5982H376.325C376.484 82.5982 376.529 82.53 376.529 82.4162C376.529 82.3025 376.461 82.2342 376.325 82.2342H376.097V82.5982Z" fill="#8F8F8F"/>
<path fill-rule="evenodd" clip-rule="evenodd" d="M375.142 82.6667C375.142 82.0525 375.642 81.552 376.256 81.552C376.871 81.552 377.371 82.0525 377.371 82.6667C377.371 83.281 376.871 83.7815 376.256 83.7815C375.642 83.7815 375.164 83.281 375.142 82.6667ZM375.369 82.6668C375.369 83.1673 375.756 83.5768 376.256 83.5768C376.734 83.5768 377.143 83.1673 377.143 82.6668C377.143 82.1663 376.757 81.7568 376.256 81.7568C375.778 81.7568 375.369 82.1663 375.369 82.6668Z" fill="#8F8F8F"/>
<path d="M378.099 92.0396C376.484 92.0396 375.164 93.359 375.164 94.9743C375.164 96.5895 376.484 97.909 378.099 97.909C379.714 97.909 381.034 96.5895 381.034 94.9743C381.034 93.3363 379.714 92.0396 378.099 92.0396Z" fill="#8F8F8F"/>
<g clip-path="url(#clip0_8070_84047)">
<path d="M279.946 203.718V212.549H277.139V190.74H284.583C285.471 190.722 286.355 190.879 287.182 191.203C288.009 191.527 288.764 192.011 289.403 192.628C290.048 193.208 290.562 193.918 290.909 194.712C291.256 195.506 291.429 196.365 291.416 197.231C291.435 198.102 291.264 198.966 290.917 199.765C290.569 200.564 290.053 201.278 289.403 201.859C288.101 203.098 286.494 203.717 284.583 203.716H279.946V203.718ZM279.946 193.425V201.038H284.652C285.168 201.053 285.682 200.961 286.16 200.767C286.638 200.573 287.071 200.281 287.429 199.91C287.786 199.564 288.07 199.15 288.264 198.692C288.458 198.234 288.557 197.742 288.557 197.246C288.557 196.749 288.458 196.257 288.264 195.799C288.07 195.341 287.786 194.927 287.429 194.581C287.075 194.202 286.644 193.904 286.166 193.704C285.687 193.505 285.171 193.409 284.652 193.423H279.946V193.425Z" fill="#8F8F8F"/>
<path d="M297.884 197.14C299.958 197.14 301.596 197.693 302.796 198.8C303.997 199.907 304.596 201.424 304.595 203.352V212.549H301.911V210.478H301.789C300.626 212.183 299.081 213.036 297.152 213.036C295.505 213.036 294.127 212.549 293.018 211.574C292.486 211.127 292.061 210.567 291.773 209.935C291.485 209.302 291.343 208.614 291.355 207.92C291.355 206.376 291.94 205.148 293.109 204.236C294.278 203.324 295.839 202.867 297.791 202.865C299.458 202.865 300.83 203.17 301.909 203.779V203.138C301.912 202.665 301.81 202.197 301.609 201.768C301.409 201.339 301.115 200.96 300.75 200.659C300.007 199.99 299.04 199.625 298.041 199.637C296.473 199.637 295.232 200.297 294.319 201.617L291.847 200.063C293.207 198.115 295.219 197.14 297.884 197.14ZM294.253 207.981C294.251 208.337 294.334 208.689 294.496 209.007C294.658 209.325 294.894 209.599 295.183 209.808C295.804 210.295 296.575 210.554 297.364 210.539C298.549 210.537 299.684 210.066 300.521 209.23C301.451 208.357 301.916 207.332 301.916 206.156C301.041 205.459 299.82 205.111 298.255 205.111C297.115 205.111 296.164 205.386 295.403 205.935C294.634 206.491 294.253 207.168 294.253 207.981Z" fill="#8F8F8F"/>
<path d="M320.005 197.627L310.633 219.126H307.736L311.214 211.604L305.052 197.627H308.102L312.556 208.346H312.617L316.949 197.627H320.005Z" fill="#8F8F8F"/>
<path d="M268.604 201.814C268.605 200.96 268.533 200.108 268.388 199.267H256.551V204.092H263.331C263.192 204.863 262.898 205.597 262.468 206.252C262.037 206.906 261.478 207.466 260.824 207.899V211.031H264.87C267.239 208.851 268.604 205.627 268.604 201.814Z" fill="#767676"/>
<path d="M256.551 214.057C259.939 214.057 262.79 212.947 264.87 211.033L260.824 207.901C259.698 208.663 258.248 209.098 256.551 209.098C253.278 209.098 250.499 206.895 249.505 203.927H245.337V207.154C246.382 209.229 247.984 210.974 249.964 212.193C251.944 213.412 254.225 214.057 256.551 214.057Z" fill="#7C7C7C"/>
<path d="M249.505 203.927C248.98 202.371 248.98 200.686 249.505 199.131V195.903H245.337C244.458 197.649 244 199.575 244 201.529C244 203.482 244.458 205.409 245.337 207.154L249.505 203.927Z" fill="#767676"/>
<path d="M256.551 193.959C258.341 193.93 260.071 194.605 261.366 195.839L264.949 192.263C262.677 190.133 259.668 188.964 256.551 189C254.225 189 251.944 189.646 249.964 190.865C247.984 192.084 246.382 193.828 245.337 195.903L249.505 199.131C250.499 196.162 253.278 193.959 256.551 193.959Z" fill="#828282"/>
</g>
<g clip-path="url(#clip1_8070_84047)">
<path d="M141.887 191.081C140.996 192.15 139.571 192.993 138.146 192.873C137.967 191.427 138.665 189.891 139.482 188.943C140.372 187.843 141.931 187.06 143.193 187C143.341 188.506 142.763 189.982 141.887 191.081ZM143.178 193.159C141.115 193.038 139.348 194.349 138.368 194.349C137.374 194.349 135.874 193.219 134.241 193.249C132.118 193.279 130.144 194.499 129.06 196.442C126.833 200.327 128.481 206.079 130.634 209.241C131.688 210.808 132.95 212.524 134.612 212.464C136.186 212.404 136.809 211.425 138.71 211.425C140.625 211.425 141.174 212.464 142.837 212.434C144.559 212.404 145.643 210.868 146.697 209.302C147.899 207.525 148.389 205.793 148.419 205.703C148.389 205.673 145.093 204.393 145.064 200.538C145.034 197.315 147.662 195.779 147.78 195.689C146.296 193.46 143.98 193.219 143.178 193.159ZM155.099 188.792V212.268H158.692V204.242H163.665C168.208 204.242 171.399 201.08 171.399 196.502C171.399 191.924 168.267 188.792 163.784 188.792H155.099ZM158.692 191.864H162.834C165.951 191.864 167.733 193.55 167.733 196.517C167.733 199.484 165.951 201.185 162.819 201.185H158.692V191.864ZM177.961 212.449C180.218 212.449 182.311 211.289 183.261 209.452H183.335V212.268H186.661V200.583C186.661 197.195 183.988 195.011 179.876 195.011C176.061 195.011 173.24 197.225 173.136 200.267H176.373C176.64 198.821 177.961 197.872 179.772 197.872C181.969 197.872 183.202 198.911 183.202 200.824V202.119L178.718 202.39C174.547 202.646 172.29 204.378 172.29 207.389C172.29 210.431 174.621 212.449 177.961 212.449ZM178.926 209.663C177.011 209.663 175.794 208.729 175.794 207.299C175.794 205.823 176.966 204.965 179.208 204.829L183.202 204.573V205.898C183.202 208.097 181.361 209.663 178.926 209.663ZM191.099 218.653C194.603 218.653 196.251 217.298 197.691 213.187L204 195.237H200.348L196.117 209.106H196.043L191.812 195.237H188.056L194.143 212.328L193.816 213.368C193.267 215.129 192.376 215.807 190.788 215.807C190.505 215.807 189.956 215.777 189.734 215.747V218.563C189.941 218.623 190.832 218.653 191.099 218.653Z" fill="#8F8F8F"/>
</g>
<defs>
<clipPath id="clip0_8070_84047">
<rect width="76" height="30.1261" fill="white" transform="translate(244 189)"/>
</clipPath>
<clipPath id="clip1_8070_84047">
<rect width="76" height="32" fill="white" transform="translate(128 187)"/>
</clipPath>
</defs>
</svg>
